<svg width="2514.258" height="2514.258" xmlns="http://www.w3.org/2000/svg" dominant-baseline="central" text-anchor="middle">

 <g>
  <title>Layer 1</title>
  <g fill="none" stroke-width="5mm" stroke="#000000" font-size="9pt" fill-rule="evenodd" stroke-linecap="round" id="svgGroup">
   <path id="svg_1" vector-effect="non-scaling-stroke" d="m1345.25503,1676.92339l495.94389,0l0,-118.66947l-174.04242,0l0.5134,-654.20348l-17.45558,-16.2283l-304.44589,13.1855l0,118.16233l174.04242,0l-0.5134,539.08395l-174.04242,0l0,118.66947zm1143.34063,-146.56187l-143.23845,-19.77824c-19.21385,42.12597 -54.6834,62.27805 -98.20892,65.47251a171.25735,169.16751 0 0 1 -12.68537,0.45497a128.23545,126.6706 0 0 1 -59.62084,-13.02515c-41.49735,-21.19532 -64.71376,-67.86232 -68.72903,-137.08666l383.50941,0l0,-53.24912a354.50185,350.17588 0 0 0 -12.79783,-98.09526c-22.83894,-77.26315 -75.64086,-124.59666 -153.52502,-143.0467a354.90572,350.57482 0 0 0 -82.6759,-8.87534c-132.79933,0 -234.05344,57.82492 -269.85352,177.3087a371.01473,366.48725 0 0 0 -14.05639,104.15093a371.46359,366.93063 0 0 0 16.78865,113.89081c37.44394,113.50636 134.49208,170.61163 260.44706,170.61163a408.60144,403.61529 0 0 0 7.13968,-0.06086c103.9277,-1.79477 207.85638,-43.15473 247.50646,-158.67224zm-1779.95598,146.56187l495.43049,0l0,-118.66947l-173.52902,0l0,-419.90735l-16.94218,-16.2283l-304.95929,13.1855l0,118.16233l174.04242,0l0,304.78782l-174.04242,0l0,118.66947zm-677.68731,-541.61963l212.54738,541.61963l155.04664,0l210.49378,-541.61963l-148.37245,0l-130.40347,366.65823l-7.18759,0l-131.94367,-366.65823l-160.18064,0zm871.17632,-93.51173a125.57751,124.04509 0 0 0 31.37995,3.74893a116.6649,115.24124 0 0 0 45.06376,-8.28899c32.24735,-13.30045 51.96874,-41.88158 51.96874,-80.45954a92.23393,91.1084 0 0 0 -10.30026,-43.45032c-15.23965,-28.10201 -46.39469,-44.28395 -86.73224,-44.28395a119.78148,118.31979 0 0 0 -45.16742,8.08421c-30.37271,12.19055 -49.83202,37.62262 -52.14574,72.54148a110.18335,108.83879 0 0 0 -0.23274,7.10858c0,43.78841 25.74234,74.69753 66.16595,84.9996zm1443.74191,298.39407l0,1.01427l-234.62356,0a181.36594,179.15274 0 0 1 14.96877,-43.46577c22.09769,-43.25616 59.88878,-61.68108 106.51817,-62.49636a184.66637,182.41289 0 0 1 3.26913,-0.02898c55.07163,0 94.52418,23.49433 106.25316,72.23334a143.27757,141.52916 0 0 1 3.61433,32.7435z"/>
  </g>
 </g>
</svg>