<svg width="239.453" height="80.869" viewBox="0 0 239.453 80.869" xmlns="http://www.w3.org/2000/svg"><g id="svgGroup" stroke-linecap="round" fill-rule="evenodd" font-size="9pt" stroke="#000" stroke-width="0.25mm" fill="#000" style="stroke:#000;stroke-width:0.25mm;fill:#000"><path d="M 128 79.651 L 176.3 79.651 L 176.3 67.951 L 159.35 67.951 L 159.4 3.451 L 157.7 1.851 L 128.05 3.151 L 128.05 14.801 L 145 14.801 L 144.95 67.951 L 128 67.951 L 128 79.651 Z M 239.35 65.201 L 225.4 63.251 A 10.971 10.971 0 0 1 222.657 67.046 C 220.818 68.663 218.479 69.51 215.835 69.706 A 16.679 16.679 0 0 1 214.6 69.751 C 206.9 69.751 202.65 64.551 202.1 54.951 L 239.45 54.951 L 239.45 49.701 A 34.525 34.525 0 0 0 238.204 40.029 C 235.979 32.412 230.837 27.745 223.252 25.926 A 34.564 34.564 0 0 0 215.2 25.051 A 32.907 32.907 0 0 0 201.586 27.711 C 195.506 30.465 191.037 35.378 188.919 42.532 A 36.133 36.133 0 0 0 187.55 52.801 A 36.177 36.177 0 0 0 189.185 64.03 C 192.255 73.45 199.438 78.93 208.951 80.429 A 35.999 35.999 0 0 0 214.55 80.851 A 39.795 39.795 0 0 0 215.245 80.845 C 223.311 80.704 231.377 78.086 236.274 71.265 A 22.968 22.968 0 0 0 239.35 65.201 Z M 66 79.651 L 114.25 79.651 L 114.25 67.951 L 97.35 67.951 L 97.35 26.551 L 95.7 24.951 L 66 26.251 L 66 37.901 L 82.95 37.901 L 82.95 67.951 L 66 67.951 L 66 79.651 Z M 0 26.251 L 20.7 79.651 L 35.8 79.651 L 56.3 26.251 L 41.85 26.251 L 29.15 62.401 L 28.45 62.401 L 15.6 26.251 L 0 26.251 Z M 78.4 8.651 A 8.974 8.974 0 0 0 79.504 13.121 C 80.601 15.057 82.46 16.416 84.844 17.031 A 12.23 12.23 0 0 0 87.9 17.401 A 11.362 11.362 0 0 0 92.289 16.584 C 95.209 15.365 97.074 12.843 97.322 9.439 A 10.845 10.845 0 0 0 97.35 8.651 A 8.983 8.983 0 0 0 96.347 4.367 C 95.303 2.419 93.493 1.052 91.145 0.412 A 12.339 12.339 0 0 0 87.9 0.001 C 82.501 0.001 78.746 3.014 78.423 7.95 A 10.731 10.731 0 0 0 78.4 8.651 Z M 225.45 46.451 L 225.45 46.551 L 202.6 46.551 A 17.663 17.663 0 0 1 204.058 42.266 C 206.21 38.001 209.89 36.184 214.432 36.104 A 17.984 17.984 0 0 1 214.75 36.101 A 13.791 13.791 0 0 1 219.625 36.903 C 222.404 37.953 224.342 40.043 225.098 43.223 A 13.954 13.954 0 0 1 225.45 46.451 Z" vector-effect="non-scaling-stroke"/></g></svg>